# xmcd
#
# Track frame offsets: 
#        150
#        23888
#        27364
#        80099
#        89099
#        106021
#        153571
#        161241
#
# Disc length: 2377 seconds
#
# Revision: 0
# Processed by: cddbd v1.5.2PL0 Copyright (c) Steve Scherf et al.
# Submitted via: ExactAudioCopy v1.3
#
DISCID=60094708
DTITLE=Richard Youngs - Summer Through My Mind
DYEAR=2013
DGENRE=Country
TTITLE0=Mountain Of Doom
TTITLE1=Misjudgement
TTITLE2=Spin Me Endless In The Universe
TTITLE3=Summer Through My Mind
TTITLE4=The Future Is So Different Today
TTITLE5=Story Of Jhon
TTITLE6=Binary Stars Over Venice
TTITLE7=Goodbye Oslo Rose
EXTD=
EXTT0=
EXTT1=
EXTT2=
EXTT3=
EXTT4=
EXTT5=
EXTT6=
EXTT7=
PLAYORDER=
